<svg xmlns="http://www.w3.org/2000/svg" viewBox="0 0 16 16" shape-rendering="crispEdges">
  <!-- Download arrow + tray (hollow outline style) -->
  <!-- Arrow shaft outline -->
  <rect x="7" y="1" width="2" height="1" fill="currentColor"/>
  <rect x="6" y="2" width="1" height="5" fill="currentColor"/>
  <rect x="9" y="2" width="1" height="5" fill="currentColor"/>
  <rect x="7" y="6" width="2" height="1" fill="currentColor"/>
  <!-- Arrow head outline -->
  <rect x="6" y="7" width="1" height="1" fill="currentColor"/>
  <rect x="9" y="7" width="1" height="1" fill="currentColor"/>
  <rect x="5" y="8" width="1" height="1" fill="currentColor"/>
  <rect x="10" y="8" width="1" height="1" fill="currentColor"/>
  <rect x="6" y="9" width="1" height="1" fill="currentColor"/>
  <rect x="9" y="9" width="1" height="1" fill="currentColor"/>
  <rect x="7" y="10" width="2" height="1" fill="currentColor"/>
  <!-- Tray -->
  <rect x="4" y="11" width="1" height="1" fill="currentColor"/>
  <rect x="11" y="11" width="1" height="1" fill="currentColor"/>
  <rect x="3" y="12" width="1" height="1" fill="currentColor"/>
  <rect x="12" y="12" width="1" height="1" fill="currentColor"/>
  <rect x="3" y="13" width="10" height="1" fill="currentColor"/>
  <rect x="4" y="14" width="8" height="1" fill="currentColor"/>
</svg>