<svg xmlns="http://www.w3.org/2000/svg" viewBox="0 0 16 16" shape-rendering="crispEdges">
  <!-- Potion bottle -->
  <!-- Cork -->
  <rect x="6" y="1" width="4" height="1" fill="currentColor"/>
  <rect x="5" y="2" width="1" height="1" fill="currentColor"/>
  <rect x="7" y="2" width="2" height="1" fill="currentColor"/>
  <rect x="10" y="2" width="1" height="1" fill="currentColor"/>
  <!-- Neck -->
  <rect x="6" y="3" width="1" height="1" fill="currentColor"/>
  <rect x="9" y="3" width="1" height="1" fill="currentColor"/>
  <rect x="6" y="4" width="1" height="1" fill="currentColor"/>
  <rect x="9" y="4" width="1" height="1" fill="currentColor"/>
  <!-- Shoulders -->
  <rect x="5" y="5" width="1" height="1" fill="currentColor"/>
  <rect x="10" y="5" width="1" height="1" fill="currentColor"/>
  <rect x="4" y="6" width="1" height="1" fill="currentColor"/>
  <rect x="11" y="6" width="1" height="1" fill="currentColor"/>
  <!-- Body -->
  <rect x="3" y="7" width="1" height="1" fill="currentColor"/>
  <rect x="5" y="7" width="1" height="1" fill="currentColor"/>
  <rect x="10" y="7" width="1" height="1" fill="currentColor"/>
  <rect x="12" y="7" width="1" height="1" fill="currentColor"/>
  <rect x="3" y="8" width="1" height="1" fill="currentColor"/>
  <rect x="4" y="8" width="1" height="1" fill="currentColor"/>
  <rect x="11" y="8" width="1" height="1" fill="currentColor"/>
  <rect x="12" y="8" width="1" height="1" fill="currentColor"/>
  <rect x="3" y="9" width="1" height="1" fill="currentColor"/>
  <rect x="12" y="9" width="1" height="1" fill="currentColor"/>
  <rect x="3" y="10" width="1" height="1" fill="currentColor"/>
  <rect x="12" y="10" width="1" height="1" fill="currentColor"/>
  <!-- Bottom -->
  <rect x="4" y="11" width="1" height="1" fill="currentColor"/>
  <rect x="11" y="11" width="1" height="1" fill="currentColor"/>
  <rect x="5" y="12" width="6" height="1" fill="currentColor"/>
  <rect x="6" y="13" width="4" height="1" fill="currentColor"/>
</svg>