<svg xmlns="http://www.w3.org/2000/svg" viewBox="0 0 16 16" shape-rendering="crispEdges">
  <!-- Globe with @ pattern -->
  <!-- Top -->
  <rect x="6" y="1" width="4" height="1" fill="currentColor"/>
  <rect x="4" y="2" width="1" height="1" fill="currentColor"/>
  <rect x="6" y="2" width="4" height="1" fill="currentColor"/>
  <rect x="11" y="2" width="1" height="1" fill="currentColor"/>
  <rect x="3" y="3" width="1" height="1" fill="currentColor"/>
  <rect x="5" y="3" width="1" height="1" fill="currentColor"/>
  <rect x="7" y="3" width="2" height="1" fill="currentColor"/>
  <rect x="10" y="3" width="1" height="1" fill="currentColor"/>
  <rect x="12" y="3" width="1" height="1" fill="currentColor"/>
  <rect x="2" y="4" width="1" height="1" fill="currentColor"/>
  <rect x="4" y="4" width="1" height="1" fill="currentColor"/>
  <rect x="6" y="4" width="1" height="1" fill="currentColor"/>
  <rect x="8" y="4" width="1" height="1" fill="currentColor"/>
  <rect x="11" y="4" width="1" height="1" fill="currentColor"/>
  <rect x="13" y="4" width="1" height="1" fill="currentColor"/>
  <!-- Middle -->
  <rect x="1" y="5" width="1" height="1" fill="currentColor"/>
  <rect x="3" y="5" width="1" height="1" fill="currentColor"/>
  <rect x="5" y="5" width="1" height="1" fill="currentColor"/>
  <rect x="7" y="5" width="2" height="1" fill="currentColor"/>
  <rect x="10" y="5" width="1" height="1" fill="currentColor"/>
  <rect x="14" y="5" width="1" height="1" fill="currentColor"/>
  <rect x="2" y="6" width="1" height="1" fill="currentColor"/>
  <rect x="4" y="6" width="1" height="1" fill="currentColor"/>
  <rect x="6" y="6" width="1" height="1" fill="currentColor"/>
  <rect x="8" y="6" width="1" height="1" fill="currentColor"/>
  <rect x="11" y="6" width="1" height="1" fill="currentColor"/>
  <rect x="13" y="6" width="1" height="1" fill="currentColor"/>
  <rect x="1" y="7" width="1" height="1" fill="currentColor"/>
  <rect x="3" y="7" width="1" height="1" fill="currentColor"/>
  <rect x="5" y="7" width="1" height="1" fill="currentColor"/>
  <rect x="7" y="7" width="2" height="1" fill="currentColor"/>
  <rect x="10" y="7" width="1" height="1" fill="currentColor"/>
  <rect x="14" y="7" width="1" height="1" fill="currentColor"/>
  <!-- Lower -->
  <rect x="2" y="8" width="1" height="1" fill="currentColor"/>
  <rect x="4" y="8" width="1" height="1" fill="currentColor"/>
  <rect x="6" y="8" width="1" height="1" fill="currentColor"/>
  <rect x="8" y="8" width="1" height="1" fill="currentColor"/>
  <rect x="11" y="8" width="1" height="1" fill="currentColor"/>
  <rect x="13" y="8" width="1" height="1" fill="currentColor"/>
  <rect x="3" y="9" width="1" height="1" fill="currentColor"/>
  <rect x="5" y="9" width="1" height="1" fill="currentColor"/>
  <rect x="7" y="9" width="2" height="1" fill="currentColor"/>
  <rect x="10" y="9" width="1" height="1" fill="currentColor"/>
  <rect x="12" y="9" width="1" height="1" fill="currentColor"/>
  <rect x="4" y="10" width="1" height="1" fill="currentColor"/>
  <rect x="6" y="10" width="4" height="1" fill="currentColor"/>
  <rect x="11" y="10" width="1" height="1" fill="currentColor"/>
  <rect x="5" y="11" width="1" height="1" fill="currentColor"/>
  <rect x="10" y="11" width="1" height="1" fill="currentColor"/>
  <rect x="6" y="12" width="4" height="1" fill="currentColor"/>
</svg>