<svg xmlns="http://www.w3.org/2000/svg" viewBox="0 0 16 16" shape-rendering="crispEdges">
  <!-- Gear -->
  <!-- Top tooth -->
  <rect x="6" y="1" width="4" height="1" fill="currentColor"/>
  <rect x="5" y="2" width="1" height="1" fill="currentColor"/>
  <rect x="7" y="2" width="2" height="1" fill="currentColor"/>
  <rect x="10" y="2" width="1" height="1" fill="currentColor"/>
  <!-- Upper right tooth -->
  <rect x="11" y="3" width="1" height="1" fill="currentColor"/>
  <rect x="12" y="4" width="1" height="1" fill="currentColor"/>
  <!-- Right side -->
  <rect x="13" y="5" width="1" height="1" fill="currentColor"/>
  <rect x="14" y="6" width="1" height="1" fill="currentColor"/>
  <rect x="13" y="7" width="1" height="1" fill="currentColor"/>
  <!-- Right lower tooth -->
  <rect x="12" y="8" width="1" height="1" fill="currentColor"/>
  <rect x="11" y="9" width="1" height="1" fill="currentColor"/>
  <!-- Bottom tooth -->
  <rect x="10" y="10" width="1" height="1" fill="currentColor"/>
  <rect x="9" y="11" width="1" height="1" fill="currentColor"/>
  <rect x="8" y="12" width="1" height="1" fill="currentColor"/>
  <rect x="7" y="13" width="2" height="1" fill="currentColor"/>
  <rect x="6" y="12" width="1" height="1" fill="currentColor"/>
  <rect x="5" y="11" width="1" height="1" fill="currentColor"/>
  <rect x="4" y="10" width="1" height="1" fill="currentColor"/>
  <!-- Left lower tooth -->
  <rect x="3" y="9" width="1" height="1" fill="currentColor"/>
  <rect x="2" y="8" width="1" height="1" fill="currentColor"/>
  <!-- Left side -->
  <rect x="1" y="7" width="1" height="1" fill="currentColor"/>
  <rect x="2" y="6" width="1" height="1" fill="currentColor"/>
  <rect x="1" y="5" width="1" height="1" fill="currentColor"/>
  <!-- Left upper tooth -->
  <rect x="2" y="4" width="1" height="1" fill="currentColor"/>
  <rect x="3" y="3" width="1" height="1" fill="currentColor"/>
  <!-- Center hole -->
  <rect x="6" y="6" width="4" height="4" fill="none" stroke="currentColor" stroke-width="1"/>
  <rect x="7" y="7" width="2" height="2" fill="currentColor"/>
  <!-- Body connections -->
  <rect x="5" y="3" width="1" height="1" fill="currentColor"/>
  <rect x="4" y="5" width="1" height="1" fill="currentColor"/>
  <rect x="3" y="7" width="1" height="1" fill="currentColor"/>
  <rect x="4" y="9" width="1" height="1" fill="currentColor"/>
  <rect x="5" y="10" width="1" height="1" fill="currentColor"/>
  <rect x="10" y="3" width="1" height="1" fill="currentColor"/>
  <rect x="11" y="5" width="1" height="1" fill="currentColor"/>
  <rect x="12" y="7" width="1" height="1" fill="currentColor"/>
  <rect x="11" y="9" width="1" height="1" fill="currentColor"/>
  <rect x="10" y="10" width="1" height="1" fill="currentColor"/>
</svg>