<svg xmlns="http://www.w3.org/2000/svg" viewBox="0 0 16 16" shape-rendering="crispEdges">
  <!-- Enchanting table - isometric -->
  <!-- Book top -->
  <rect x="7" y="1" width="2" height="1" fill="currentColor"/>
  <rect x="5" y="2" width="1" height="1" fill="currentColor"/>
  <rect x="7" y="2" width="2" height="1" fill="currentColor"/>
  <rect x="10" y="2" width="1" height="1" fill="currentColor"/>
  <rect x="4" y="3" width="1" height="1" fill="currentColor"/>
  <rect x="6" y="3" width="1" height="1" fill="currentColor"/>
  <rect x="8" y="3" width="1" height="1" fill="currentColor"/>
  <rect x="11" y="3" width="1" height="1" fill="currentColor"/>
  <rect x="3" y="4" width="1" height="1" fill="currentColor"/>
  <rect x="5" y="4" width="1" height="1" fill="currentColor"/>
  <rect x="7" y="4" width="2" height="1" fill="currentColor"/>
  <rect x="10" y="4" width="1" height="1" fill="currentColor"/>
  <rect x="12" y="4" width="1" height="1" fill="currentColor"/>
  <rect x="4" y="5" width="1" height="1" fill="currentColor"/>
  <rect x="6" y="5" width="1" height="1" fill="currentColor"/>
  <rect x="9" y="5" width="1" height="1" fill="currentColor"/>
  <rect x="11" y="5" width="1" height="1" fill="currentColor"/>
  <!-- Table top surface -->
  <rect x="2" y="6" width="12" height="1" fill="currentColor"/>
  <rect x="1" y="7" width="14" height="1" fill="currentColor"/>
  <!-- Table body front -->
  <rect x="1" y="8" width="1" height="3" fill="currentColor"/>
  <rect x="14" y="8" width="1" height="3" fill="currentColor"/>
  <rect x="2" y="8" width="12" height="1" fill="currentColor"/>
  <rect x="2" y="9" width="1" height="1" fill="currentColor"/>
  <rect x="13" y="9" width="1" height="1" fill="currentColor"/>
  <rect x="4" y="9" width="1" height="1" fill="currentColor"/>
  <rect x="7" y="9" width="2" height="1" fill="currentColor"/>
  <rect x="11" y="9" width="1" height="1" fill="currentColor"/>
  <rect x="2" y="10" width="1" height="1" fill="currentColor"/>
  <rect x="13" y="10" width="1" height="1" fill="currentColor"/>
  <rect x="5" y="10" width="1" height="1" fill="currentColor"/>
  <rect x="10" y="10" width="1" height="1" fill="currentColor"/>
  <!-- Table bottom -->
  <rect x="2" y="11" width="12" height="1" fill="currentColor"/>
  <rect x="3" y="12" width="10" height="1" fill="currentColor"/>
  <rect x="4" y="13" width="8" height="1" fill="currentColor"/>
  <rect x="6" y="14" width="4" height="1" fill="currentColor"/>
</svg>